<svg width="151" height="151" viewBox="0 0 151 151" fill="none" xmlns="http://www.w3.org/2000/svg">
<path d="M18.9995 40.8745V53.3745H48.2026V65.8745H6.49951L6.49951 40.8745H18.9995ZM6.49951 81.4995H48.2026V93.9996H6.49951V81.4995ZM48.2026 109.625V122.125H18.9995V134.625H6.49951L6.49951 109.625H20.5901H48.2026Z" fill="#F50A0A"/>
<path d="M131.5 40.8745V53.3745H102.509V65.8745H144V40.8745H131.5ZM102.509 81.4995H144V93.9995H102.509V81.4995ZM102.509 109.625V122.125H131.5V134.625H144V109.625H129.765H102.509Z" fill="#F50A0A"/>
<g opacity="0.1">
<path opacity="0.1" d="M103.218 65.4058V65.8745L144 65.8745V65.4058L130.478 65.4058H103.218ZM103.218 93.5308H144V93.9995H103.218V93.5308ZM6.49951 93.5308H47.2089V93.9995H6.49951V93.5308ZM6.49951 65.4058V65.8745H47.1026L47.2089 65.4058H19.9526H6.49951ZM6.49951 134.156H18.9995V134.625H6.49951V134.156ZM18.9995 121.656H46.2901V122.125H18.9995V121.656ZM131.5 134.156H144V134.625H131.5V134.156ZM104.231 121.656H131.5V122.125H104.231V121.656Z" fill="black"/>
<path opacity="0.1" d="M104.231 53.3745H131.5V53.8433H104.231V53.3745ZM131.5 40.8745H144V41.3433H131.5V40.8745ZM103.218 81.4996H144V81.9683H103.218V81.4996ZM6.49951 81.4996H47.9901V81.9683H6.49951V81.4996ZM6.49951 40.8745H18.9995V41.3433H6.49951V40.8745ZM18.9995 53.3745H47.2089V53.8433H18.9995V53.3745ZM6.49951 109.625V110.093H47.2089V109.625H19.9526H6.49951ZM102.437 109.625V110.093L144 110.093V109.625L129.696 109.625H102.437Z" fill="white"/>
</g>
<path d="M75.2495 75.534C94.2239 75.534 109.606 60.1521 109.606 41.1777C109.606 22.2033 94.2239 6.82146 75.2495 6.82146C56.2751 6.82146 40.8932 22.2033 40.8932 41.1777C40.8932 60.1521 56.2751 75.534 75.2495 75.534Z" fill="#F50A0A"/>
<path d="M75.2494 7.21196C94.1619 7.21196 109.499 22.4838 109.606 41.3807V41.1932C109.606 22.2182 94.2244 6.83696 75.2494 6.83696C56.2744 6.83696 40.8932 22.2026 40.8932 41.1776V41.3651C40.9994 22.4838 56.3369 7.20883 75.2494 7.20883V7.21196Z" fill="white" fill-opacity="0.2"/>
<path d="M75.2495 75.1432C56.337 75.1432 40.9995 59.8682 40.8932 40.9744V41.1619C40.8932 60.1369 56.2745 75.5182 75.2495 75.5182C94.2245 75.5182 109.606 60.1338 109.606 41.1619V40.9744C109.5 59.8682 94.162 75.1432 75.2495 75.1432Z" fill="#3E2723" fill-opacity="0.2"/>
<path d="M75.2495 75.534C94.2239 75.534 109.606 60.1521 109.606 41.1777C109.606 22.2033 94.2239 6.82146 75.2495 6.82146C56.2751 6.82146 40.8932 22.2033 40.8932 41.1777C40.8932 60.1521 56.2751 75.534 75.2495 75.534Z" fill="url(#paint0_radial)"/>
<path d="M75.2494 143.537C105.437 143.537 129.909 119.065 129.909 88.8778C129.909 58.6902 105.437 34.2184 75.2494 34.2184C45.0619 34.2184 20.59 58.6902 20.59 88.8778C20.59 119.065 45.0619 143.537 75.2494 143.537Z" fill="#F50A0A"/>
<path d="M75.2495 34.8433C105.337 34.8433 129.734 59.1402 129.906 89.2027V88.9027C129.906 58.7152 105.437 34.2465 75.2495 34.2465C45.062 34.2465 20.5933 58.6933 20.5933 88.8746V89.1746C20.7651 59.1371 45.162 34.8371 75.2495 34.8371V34.8433Z" fill="white" fill-opacity="0.2"/>
<path d="M75.2495 142.915C45.162 142.915 20.7651 118.618 20.5933 88.5559V88.8528C20.5933 119.04 45.062 143.512 75.2495 143.512C105.437 143.512 129.906 119.04 129.906 88.8559V88.5559C129.734 118.618 105.337 142.915 75.2495 142.915V142.915Z" fill="#3E2723" fill-opacity="0.2"/>
<path d="M75.2494 143.537C105.437 143.537 129.909 119.065 129.909 88.8778C129.909 58.6902 105.437 34.2184 75.2494 34.2184C45.0619 34.2184 20.59 58.6902 20.59 88.8778C20.59 119.065 45.0619 143.537 75.2494 143.537Z" fill="url(#paint1_radial)"/>
<path d="M81.4995 55.6371L76.687 103.225L75.2495 102.506L68.9995 122.984L87.4589 141.975C97.4215 139.678 106.538 134.626 113.767 127.396C120.996 120.166 126.047 111.05 128.343 101.087L81.4995 55.6371Z" fill="url(#paint2_radial)"/>
<path d="M81.4995 122.031V56.4995H68.9995V122.031" fill="#EEEEEE"/>
<path opacity="0.4" d="M68.9995 55.6371H81.4995V56.4995H68.9995V55.6371Z" fill="white"/>
<path opacity="0.1" d="M68.9995 122.125H81.4995V122.987H68.9995V122.125Z" fill="#3E2723"/>
<defs>
<radialGradient id="paint0_radial" cx="0" cy="0" r="1" gradientUnits="userSpaceOnUse" gradientTransform="translate(56.4905 15.8111) scale(65.1517)">
<stop stop-color="white" stop-opacity="0.1"/>
<stop offset="1" stop-color="white" stop-opacity="0"/>
</radialGradient>
<radialGradient id="paint1_radial" cx="0" cy="0" r="1" gradientUnits="userSpaceOnUse" gradientTransform="translate(45.4203 48.5146) scale(103.649)">
<stop stop-color="white" stop-opacity="0.1"/>
<stop offset="1" stop-color="white" stop-opacity="0"/>
</radialGradient>
<radialGradient id="paint2_radial" cx="0" cy="0" r="1" gradientUnits="userSpaceOnUse" gradientTransform="translate(82.6914 86.3323) scale(54.0055)">
<stop stop-color="#263238" stop-opacity="0.15"/>
<stop offset="1" stop-color="#263238" stop-opacity="0.02"/>
</radialGradient>
</defs>
</svg>
