<svg width="203" height="203" viewBox="0 0 203 203" fill="none" xmlns="http://www.w3.org/2000/svg">
<g clip-path="url(#clip0)">
<path d="M67.3925 44.6862L61.5883 55.757L87.4524 69.317L81.6483 80.3877L44.7134 61.0236L56.3217 38.8821L67.3925 44.6862ZM37.4582 74.8621L74.3931 94.2262L68.5889 105.297L31.6541 85.9328L37.4582 74.8621ZM61.3337 119.135L55.5295 130.206L29.6655 116.646L23.8613 127.717L12.7906 121.913L24.3989 99.7713L36.8784 106.314L61.3337 119.135Z" fill="#F50A0A"/>
<path d="M167.029 96.9237L161.225 107.994L135.549 94.5331L129.745 105.604L166.492 124.869L178.1 102.728L167.029 96.9237ZM122.49 119.442L159.237 138.708L153.432 149.779L116.686 130.513L122.49 119.442ZM109.431 144.352L103.627 155.422L129.302 168.884L123.498 179.954L134.569 185.759L146.177 163.617L133.57 157.008L109.431 144.352Z" fill="#F50A0A"/>
<g opacity="0.1">
<path opacity="0.1" d="M130.591 105.518L130.373 105.933L166.492 124.869L166.709 124.454L154.734 118.176L130.591 105.518ZM117.532 130.427L153.65 149.363L153.432 149.779L117.314 130.842L117.532 130.427ZM31.8718 85.5176L67.9265 104.42L67.7088 104.835L31.6541 85.9328L31.8718 85.5176ZM44.9311 60.6084L44.7135 61.0236L80.6741 79.8769L80.9858 79.5111L56.846 66.8552L44.9311 60.6084ZM13.0082 121.498L24.079 127.302L23.8613 127.717L12.7906 121.913L13.0082 121.498ZM29.8832 116.231L54.0534 128.903L53.8357 129.318L29.6655 116.646L29.8832 116.231ZM123.716 179.539L134.787 185.343L134.569 185.759L123.498 179.954L123.716 179.539ZM105.369 155.807L129.52 168.468L129.302 168.884L105.151 156.222L105.369 155.807Z" fill="black"/>
<path opacity="0.1" d="M137.074 95.3327L161.225 107.994L161.008 108.41L136.857 95.7478L137.074 95.3327ZM167.029 96.9237L178.1 102.728L177.882 103.143L166.812 97.3388L167.029 96.9237ZM123.118 119.772L159.237 138.708L159.019 139.123L122.901 120.187L123.118 119.772ZM37.4582 74.8621L74.2049 94.1275L73.9872 94.5427L37.2406 75.2772L37.4582 74.8621ZM56.3217 38.8821L67.3925 44.6862L67.1749 45.1014L56.1041 39.2972L56.3217 38.8821ZM61.5883 55.757L86.5723 68.8555L86.3546 69.2707L61.3707 56.1722L61.5883 55.757ZM24.3989 99.7713L24.1812 100.186L60.2359 119.089L60.4536 118.674L36.3138 106.018L24.3989 99.7713ZM109.367 144.318L109.149 144.733L145.96 164.032L146.177 163.617L133.51 156.976L109.367 144.318Z" fill="white"/>
</g>
<path d="M101.117 101.501C117.922 110.312 138.688 103.831 147.498 87.0262C156.309 70.2212 149.828 49.4559 133.023 40.6454C116.218 31.835 95.4526 38.3158 86.6422 55.1207C77.8317 71.9256 84.3125 92.691 101.117 101.501Z" fill="#F50A0A"/>
<path d="M132.842 40.9913C149.592 49.773 156.084 70.4204 147.404 87.2059L147.491 87.0399C156.302 70.2345 149.821 49.4699 133.016 40.6592C116.21 31.8485 95.4529 38.3152 86.6422 55.1206L86.5551 55.2867C95.4164 38.6136 116.093 32.2068 132.843 40.9885L132.842 40.9913Z" fill="white" fill-opacity="0.2"/>
<path d="M101.299 101.155C84.5488 92.3736 78.0577 71.7235 86.7365 54.9407L86.6495 55.1067C77.8388 71.9121 84.3193 92.6767 101.125 101.487C117.93 110.298 138.696 103.815 147.505 87.0122L147.593 86.8461C138.725 103.53 118.049 109.937 101.299 101.155Z" fill="#3E2723" fill-opacity="0.2"/>
<path d="M101.117 101.501C117.922 110.312 138.688 103.831 147.498 87.0262C156.309 70.2212 149.828 49.4559 133.023 40.6454C116.218 31.835 95.4526 38.3158 86.6422 55.1207C77.8317 71.9256 84.3125 92.691 101.117 101.501Z" fill="url(#paint0_radial)"/>
<path d="M69.5413 161.729C96.2772 175.746 129.314 165.436 143.331 138.7C157.348 111.964 147.037 78.9269 120.302 64.9098C93.5656 50.8928 60.5288 61.2034 46.5117 87.9394C32.4946 114.675 42.8053 147.712 69.5413 161.729Z" fill="#F50A0A"/>
<path d="M120.011 65.4633C146.659 79.434 156.984 112.281 143.178 138.986L143.317 138.72C157.334 111.984 147.024 78.9518 120.289 64.9347C93.5527 50.9177 60.5302 61.2077 46.516 87.938L46.3767 88.2037C60.4764 61.6805 93.367 51.4872 120.014 65.4578L120.011 65.4633Z" fill="white" fill-opacity="0.2"/>
<path d="M69.8301 161.178C43.1828 147.208 32.8572 114.361 46.664 87.6558L46.5262 87.9187C32.5091 114.655 42.8171 147.69 69.5529 161.707C96.2888 175.724 129.323 165.412 143.339 138.679L143.478 138.413C129.367 164.959 96.4774 175.149 69.8301 161.178Z" fill="#3E2723" fill-opacity="0.2"/>
<path d="M69.5413 161.729C96.2772 175.746 129.314 165.436 143.331 138.7C157.348 111.964 147.037 78.9269 120.302 64.9098C93.5656 50.8928 60.5288 61.2034 46.5117 87.9394C32.4946 114.675 42.8053 147.712 69.5413 161.729Z" fill="url(#paint1_radial)"/>
<path d="M115.892 86.7816L89.5329 126.693L88.5935 125.389L73.5495 140.624L81.0803 166.014C90.9703 168.606 101.39 168.365 111.149 165.319C120.909 162.272 129.616 156.543 136.275 148.786L115.892 86.7816Z" fill="url(#paint2_radial)"/>
<path d="M85.0628 145.584L115.491 87.5454L104.42 81.7413L73.9921 139.78" fill="#EEEEEE"/>
<path opacity="0.4" d="M104.821 80.9774L115.892 86.7816L115.491 87.5455L104.42 81.7413L104.821 80.9774Z" fill="white"/>
<path opacity="0.1" d="M73.9485 139.863L85.0193 145.667L84.6188 146.431L73.548 140.627L73.9485 139.863Z" fill="#3E2723"/>
</g>
<defs>
<radialGradient id="paint0_radial" cx="0" cy="0" r="1" gradientUnits="userSpaceOnUse" gradientTransform="translate(112.235 39.8968) rotate(27.667) scale(65.1517)">
<stop stop-color="white" stop-opacity="0.1"/>
<stop offset="1" stop-color="white" stop-opacity="0"/>
</radialGradient>
<radialGradient id="paint1_radial" cx="0" cy="0" r="1" gradientUnits="userSpaceOnUse" gradientTransform="translate(87.2449 63.7209) rotate(27.667) scale(103.649)">
<stop stop-color="white" stop-opacity="0.1"/>
<stop offset="1" stop-color="white" stop-opacity="0"/>
</radialGradient>
<radialGradient id="paint2_radial" cx="0" cy="0" r="1" gradientUnits="userSpaceOnUse" gradientTransform="translate(102.694 114.521) rotate(27.667) scale(54.0055)">
<stop stop-color="#263238" stop-opacity="0.15"/>
<stop offset="1" stop-color="#263238" stop-opacity="0.02"/>
</radialGradient>
<clipPath id="clip0">
<rect width="150" height="150" fill="white" transform="translate(69.6499) rotate(27.667)"/>
</clipPath>
</defs>
</svg>
